<svg width="85" height="86" viewBox="0 0 85 86" fill="none" xmlns="http://www.w3.org/2000/svg">
<path d="M42.4668 6.33216C21.939 6.32385 5.3125 22.946 5.3125 43.4622C5.3125 59.6858 15.7134 73.4767 30.1982 78.5414C32.1489 79.0313 31.8501 77.6447 31.8501 76.6982V70.2636C20.5859 71.5837 20.1294 64.1278 19.374 62.8824C17.8467 60.2753 14.2358 59.6111 15.3149 58.3657C17.8799 57.0455 20.4946 58.6978 23.5244 63.173C25.7158 66.4194 29.9907 65.8714 32.1572 65.3317C32.6304 63.3806 33.6431 61.637 35.0376 60.2836C23.3667 58.1913 18.5024 51.0675 18.5024 42.5987C18.5024 38.4888 19.8555 34.7111 22.5117 31.6639C20.8184 26.6408 22.6694 22.3399 22.9185 21.7006C27.7412 21.2689 32.7549 25.1546 33.145 25.4618C35.8843 24.7228 39.0137 24.3326 42.5166 24.3326C46.0361 24.3326 49.1738 24.7394 51.938 25.4867C52.876 24.7726 57.5244 21.4349 62.0068 21.8418C62.2476 22.4811 64.0571 26.6823 62.4634 31.639C65.1528 34.6945 66.5225 38.5054 66.5225 42.6236C66.5225 51.1091 61.625 58.2411 49.9209 60.3002C50.9234 61.2863 51.7194 62.4624 52.2624 63.7596C52.8054 65.0569 53.0845 66.4494 53.0835 67.8558V77.1964C53.1499 77.9436 53.0835 78.6826 54.3286 78.6826C69.0293 73.7258 79.6128 59.8353 79.6128 43.4705C79.6128 22.946 62.978 6.33216 42.4668 6.33216Z" fill="#171F3F"/>
</svg>
