<svg width="31" height="28" viewBox="0 0 31 28" fill="none" xmlns="http://www.w3.org/2000/svg">
<path d="M15.636 18.2062C15.636 18.322 15.7369 18.4167 15.8584 18.4167H21.3443C21.4659 18.4167 21.5667 18.322 21.5667 18.2062V16.9427C21.5667 16.8269 21.4659 16.7322 21.3443 16.7322H15.8584C15.7369 16.7322 15.636 16.8269 15.636 16.9427V18.2062ZM9.85656 18.3667L15.55 14.129C15.6627 14.0448 15.6627 13.8895 15.55 13.8053L9.85656 9.57023C9.82219 9.54429 9.78015 9.52764 9.73544 9.52227C9.69073 9.51691 9.64523 9.52304 9.60433 9.53994C9.56342 9.55685 9.52885 9.58382 9.5047 9.61764C9.48055 9.65147 9.46785 9.69074 9.4681 9.73079V11.3811C9.4681 11.4443 9.49775 11.5022 9.55409 11.5417L12.8101 13.9685L9.55409 16.3953C9.52759 16.415 9.50618 16.4395 9.49134 16.4672C9.4765 16.4949 9.46857 16.5252 9.4681 16.5558V18.2062C9.4681 18.3851 9.70236 18.4825 9.85656 18.3667ZM26.4299 3.44006H4.60492C4.08005 3.44006 3.65601 3.81645 3.65601 4.28234V23.6546C3.65601 24.1205 4.08005 24.4969 4.60492 24.4969H26.4299C26.9548 24.4969 27.3788 24.1205 27.3788 23.6546V4.28234C27.3788 3.81645 26.9548 3.44006 26.4299 3.44006ZM25.2438 22.6018H5.79106V5.33518H25.2438V22.6018Z" fill="#0593FB"/>
</svg>
