<svg width="59" height="62" viewBox="0 0 59 62" fill="none" xmlns="http://www.w3.org/2000/svg">
<path d="M29.4773 4.61768C15.3627 4.61162 3.93066 16.7331 3.93066 31.6942C3.93066 43.5251 11.0821 53.5819 21.0416 57.2753C22.3829 57.6325 22.1774 56.6214 22.1774 55.9312V51.2388C14.4324 52.2015 14.1185 46.7644 13.5991 45.8562C12.5489 43.955 10.0662 43.4706 10.8082 42.5624C12.5718 41.5997 14.3696 42.8046 16.4528 46.0681C17.9596 48.4355 20.899 48.0358 22.3886 47.6423C22.7139 46.2194 23.4102 44.948 24.3691 43.961C16.3444 42.4353 12.9998 37.2403 12.9998 31.0646C12.9998 28.0675 13.9301 25.3126 15.7565 23.0905C14.5922 19.4274 15.865 16.2911 16.0362 15.8249C19.3522 15.5101 22.7995 18.3437 23.0678 18.5677C24.9513 18.0288 27.103 17.7442 29.5115 17.7442C31.9315 17.7442 34.0889 18.0409 35.9895 18.5858C36.6344 18.0651 39.8306 15.6312 42.9126 15.9278C43.0782 16.394 44.3224 19.4577 43.2266 23.0724C45.0758 25.3005 46.0175 28.0796 46.0175 31.0827C46.0175 37.2706 42.6501 42.4716 34.6026 43.9731C35.2919 44.6923 35.8392 45.5499 36.2125 46.4959C36.5859 47.4419 36.7778 48.4573 36.7771 49.4829V56.2944C36.8228 56.8394 36.7771 57.3782 37.6332 57.3782C47.7412 53.7636 55.0182 43.6341 55.0182 31.7003C55.0182 16.7331 43.5804 4.61768 29.4773 4.61768Z" fill="white"/>
</svg>
