<svg width="834" height="464" viewBox="0 0 834 464" fill="none" xmlns="http://www.w3.org/2000/svg">
<g clip-path="url(#clip0)">
<path opacity="0.1" d="M834 297.821C834.01 310.426 832.329 322.971 829.006 335.102C825.794 346.796 821.069 357.991 814.958 368.384C814.958 406.041 790.302 438.587 754.515 454.071C739.56 460.476 723.519 463.746 707.325 463.692H158.321C128.978 463.692 101.786 455.529 79.4852 441.624C73.1029 437.662 67.0485 433.165 61.3836 428.177C36.5969 406.214 21.2291 375.863 21.2291 342.34C7.31803 320.255 -0.0582597 294.472 2.22877e-05 268.139C2.22877e-05 212.998 31.6322 165.585 76.9482 144.652C82.9657 141.874 89.1835 139.582 95.5455 137.797C97.7957 137.166 100.07 136.6 102.369 136.099C108.497 134.753 114.713 133.874 120.966 133.468C123.226 133.323 125.499 133.24 127.783 133.22H129.037C131.559 133.22 134.06 133.31 136.546 133.46L137.362 132.032C138.363 130.309 139.389 128.602 140.439 126.914C142.334 123.837 144.322 120.805 146.402 117.819C148.579 114.667 150.851 111.565 153.218 108.514L153.823 107.762C155.165 106.038 156.535 104.334 157.935 102.651C162.309 97.3944 166.926 92.2958 171.787 87.355C224.356 34.2294 306.714 0.0299225 399.299 0.0299225C471.341 0.0299225 537.194 20.7375 587.635 54.952C606.744 43.8026 628.33 37.9524 650.287 37.9725C721.541 37.9725 779.323 98.3815 779.323 172.899C779.313 177.614 779.069 182.325 778.594 187.014C795.77 199.55 809.77 216.161 819.413 235.446C829.056 254.731 834.059 276.124 834 297.821V297.821Z" fill="#353238"/>
<path opacity="0.2" d="M171.801 87.3251V102.621H157.95C162.29 97.3694 166.907 92.2708 171.801 87.3251Z" fill="#353238"/>
<path opacity="0.2" d="M197.222 83.4466H178.625V102.621H197.222V83.4466Z" fill="#353238"/>
<path opacity="0.2" d="M222.636 83.4466H204.038V102.621H222.636V83.4466Z" fill="#353238"/>
<path opacity="0.2" d="M248.057 83.4466H229.459V102.621H248.057V83.4466Z" fill="#353238"/>
<path opacity="0.2" d="M273.47 83.4466H254.873V102.621H273.47V83.4466Z" fill="#353238"/>
<path opacity="0.2" d="M298.891 83.4466H280.294V102.621H298.891V83.4466Z" fill="#353238"/>
<path d="M324.312 83.4466H305.715V102.621H324.312V83.4466Z" fill="#353238"/>
<path opacity="0.2" d="M349.726 83.4466H331.129V102.621H349.726V83.4466Z" fill="#353238"/>
<path opacity="0.2" d="M375.147 83.4466H356.55V102.621H375.147V83.4466Z" fill="#353238"/>
<path opacity="0.2" d="M400.561 83.4466H381.963V102.621H400.561V83.4466Z" fill="#353238"/>
<path d="M425.982 83.4466H407.384V102.621H425.982V83.4466Z" fill="#353238"/>
<path opacity="0.2" d="M451.402 83.4466H432.805V102.621H451.402V83.4466Z" fill="#353238"/>
<path opacity="0.2" d="M476.816 83.4466H458.219V102.621H476.816V83.4466Z" fill="#353238"/>
<path opacity="0.2" d="M502.237 83.4466H483.64V102.621H502.237V83.4466Z" fill="#353238"/>
<path opacity="0.2" d="M527.658 83.4466H509.061V102.621H527.658V83.4466Z" fill="#353238"/>
<path opacity="0.2" d="M553.072 83.4466H534.474V102.621H553.072V83.4466Z" fill="#353238"/>
<path opacity="0.2" d="M578.493 83.4466H559.895V102.621H578.493V83.4466Z" fill="#353238"/>
<path d="M603.906 83.4466H585.309V102.621H603.906V83.4466Z" fill="#353238"/>
<path d="M629.327 83.4466H610.73V102.621H629.327V83.4466Z" fill="#353238"/>
<path opacity="0.2" d="M654.748 83.4466H636.151V102.621H654.748V83.4466Z" fill="#353238"/>
<path opacity="0.2" d="M680.162 83.4466H661.565V102.621H680.162V83.4466Z" fill="#353238"/>
<path d="M705.583 83.4466H686.986V102.621H705.583V83.4466Z" fill="#353238"/>
<path d="M730.997 83.4466H712.399V102.621H730.997V83.4466Z" fill="#353238"/>
<path d="M146.387 117.811V126.906H140.424C142.319 123.809 144.307 120.778 146.387 117.811Z" fill="#353238"/>
<path opacity="0.2" d="M171.801 107.732H153.204V126.906H171.801V107.732Z" fill="#353238"/>
<path d="M197.222 107.732H178.625V126.906H197.222V107.732Z" fill="#353238"/>
<path opacity="0.2" d="M222.636 107.732H204.038V126.906H222.636V107.732Z" fill="#353238"/>
<path opacity="0.7" d="M248.057 107.732H229.459V126.906H248.057V107.732Z" fill="#353238"/>
<path opacity="0.2" d="M273.47 107.732H254.873V126.906H273.47V107.732Z" fill="#353238"/>
<path opacity="0.4" d="M298.891 107.732H280.294V126.906H298.891V107.732Z" fill="#353238"/>
<path d="M324.312 107.732H305.715V126.906H324.312V107.732Z" fill="#353238"/>
<path opacity="0.4" d="M349.726 107.732H331.129V126.906H349.726V107.732Z" fill="#353238"/>
<path opacity="0.2" d="M375.147 107.732H356.55V126.906H375.147V107.732Z" fill="#353238"/>
<path opacity="0.4" d="M400.561 107.732H381.963V126.906H400.561V107.732Z" fill="#353238"/>
<path d="M425.982 107.732H407.384V126.906H425.982V107.732Z" fill="#353238"/>
<path opacity="0.4" d="M451.402 107.732H432.805V126.906H451.402V107.732Z" fill="#353238"/>
<path opacity="0.4" d="M476.816 107.732H458.219V126.906H476.816V107.732Z" fill="#353238"/>
<path opacity="0.2" d="M502.237 107.732H483.64V126.906H502.237V107.732Z" fill="#353238"/>
<path opacity="0.4" d="M527.658 107.732H509.061V126.906H527.658V107.732Z" fill="#353238"/>
<path opacity="0.4" d="M553.072 107.732H534.474V126.906H553.072V107.732Z" fill="#353238"/>
<path opacity="0.2" d="M578.493 107.732H559.895V126.906H578.493V107.732Z" fill="#353238"/>
<path opacity="0.2" d="M603.906 107.732H585.309V126.906H603.906V107.732Z" fill="#353238"/>
<path opacity="0.4" d="M629.327 107.732H610.73V126.906H629.327V107.732Z" fill="#353238"/>
<path opacity="0.2" d="M654.748 107.732H636.151V126.906H654.748V107.732Z" fill="#353238"/>
<path d="M680.162 107.732H661.565V126.906H680.162V107.732Z" fill="#353238"/>
<path d="M705.583 107.732H686.986V126.906H705.583V107.732Z" fill="#353238"/>
<path d="M730.997 107.732H712.399V126.906H730.997V107.732Z" fill="#353238"/>
<path opacity="0.2" d="M95.5455 137.797V151.199H76.9482V144.652C82.9656 141.874 89.1835 139.582 95.5455 137.797V137.797Z" fill="#353238"/>
<path opacity="0.2" d="M120.966 133.468V151.199H102.369V136.099L120.966 133.468Z" fill="#353238"/>
<path d="M146.38 132.025H127.783V151.199H146.38V132.025Z" fill="#353238"/>
<path opacity="0.7" d="M171.801 132.025H153.204V151.199H171.801V132.025Z" fill="#353238"/>
<path d="M197.222 132.025H178.625V151.199H197.222V132.025Z" fill="#353238"/>
<path opacity="0.7" d="M222.636 132.025H204.038V151.199H222.636V132.025Z" fill="#353238"/>
<path opacity="0.7" d="M248.057 132.025H229.459V151.199H248.057V132.025Z" fill="#353238"/>
<path opacity="0.2" d="M273.47 132.025H254.873V151.199H273.47V132.025Z" fill="#353238"/>
<path opacity="0.4" d="M298.891 132.025H280.294V151.199H298.891V132.025Z" fill="#353238"/>
<path opacity="0.4" d="M324.312 132.025H305.715V151.199H324.312V132.025Z" fill="#353238"/>
<path d="M349.726 132.025H331.129V151.199H349.726V132.025Z" fill="#353238"/>
<path opacity="0.2" d="M375.147 132.025H356.55V151.199H375.147V132.025Z" fill="#353238"/>
<path opacity="0.4" d="M400.561 132.025H381.963V151.199H400.561V132.025Z" fill="#353238"/>
<path d="M425.982 132.025H407.384V151.199H425.982V132.025Z" fill="#353238"/>
<path opacity="0.2" d="M451.402 132.025H432.805V151.199H451.402V132.025Z" fill="#353238"/>
<path opacity="0.4" d="M476.816 132.025H458.219V151.199H476.816V132.025Z" fill="#353238"/>
<path opacity="0.2" d="M502.237 132.025H483.64V151.199H502.237V132.025Z" fill="#353238"/>
<path d="M527.658 132.025H509.061V151.199H527.658V132.025Z" fill="#353238"/>
<path opacity="0.2" d="M553.072 132.025H534.474V151.199H553.072V132.025Z" fill="#353238"/>
<path opacity="0.7" d="M578.493 132.025H559.895V151.199H578.493V132.025Z" fill="#353238"/>
<path opacity="0.7" d="M603.906 132.025H585.309V151.199H603.906V132.025Z" fill="#353238"/>
<path opacity="0.4" d="M629.327 132.025H610.73V151.199H629.327V132.025Z" fill="#353238"/>
<path opacity="0.2" d="M654.748 132.025H636.151V151.199H654.748V132.025Z" fill="#353238"/>
<path d="M680.162 132.025H661.565V151.199H680.162V132.025Z" fill="#353238"/>
<path d="M705.583 132.025H686.986V151.199H705.583V132.025Z" fill="#353238"/>
<path d="M730.997 132.025H712.399V151.199H730.997V132.025Z" fill="#353238"/>
<path opacity="0.2" d="M95.5455 156.31H76.9482V175.484H95.5455V156.31Z" fill="#353238"/>
<path opacity="0.2" d="M120.966 156.31H102.369V175.484H120.966V156.31Z" fill="#353238"/>
<path opacity="0.2" d="M146.38 156.31H127.783V175.484H146.38V156.31Z" fill="#353238"/>
<path opacity="0.2" d="M171.801 156.31H153.204V175.484H171.801V156.31Z" fill="#353238"/>
<path d="M197.222 156.31H178.625V175.484H197.222V156.31Z" fill="#353238"/>
<path opacity="0.7" d="M222.636 156.31H204.038V175.484H222.636V156.31Z" fill="#353238"/>
<path opacity="0.7" d="M248.057 156.31H229.459V175.484H248.057V156.31Z" fill="#353238"/>
<path opacity="0.2" d="M273.47 156.31H254.873V175.484H273.47V156.31Z" fill="#353238"/>
<path opacity="0.2" d="M298.891 156.31H280.294V175.484H298.891V156.31Z" fill="#353238"/>
<path opacity="0.4" d="M324.312 156.31H305.715V175.484H324.312V156.31Z" fill="#353238"/>
<path opacity="0.4" d="M349.726 156.31H331.129V175.484H349.726V156.31Z" fill="#353238"/>
<path d="M375.147 156.31H356.55V175.484H375.147V156.31Z" fill="#353238"/>
<path opacity="0.2" d="M400.561 156.31H381.963V175.484H400.561V156.31Z" fill="#353238"/>
<path opacity="0.4" d="M425.982 156.31H407.384V175.484H425.982V156.31Z" fill="#353238"/>
<path opacity="0.4" d="M451.402 156.31H432.805V175.484H451.402V156.31Z" fill="#353238"/>
<path opacity="0.4" d="M476.816 156.31H458.219V175.484H476.816V156.31Z" fill="#353238"/>
<path opacity="0.4" d="M502.237 156.31H483.64V175.484H502.237V156.31Z" fill="#353238"/>
<path opacity="0.2" d="M527.658 156.31H509.061V175.484H527.658V156.31Z" fill="#353238"/>
<path opacity="0.2" d="M553.072 156.31H534.474V175.484H553.072V156.31Z" fill="#353238"/>
<path opacity="0.2" d="M578.493 156.31H559.895V175.484H578.493V156.31Z" fill="#353238"/>
<path opacity="0.2" d="M603.906 156.31H585.309V175.484H603.906V156.31Z" fill="#353238"/>
<path opacity="0.7" d="M629.327 156.31H610.73V175.484H629.327V156.31Z" fill="#353238"/>
<path opacity="0.7" d="M654.748 156.31H636.151V175.484H654.748V156.31Z" fill="#353238"/>
<path opacity="0.4" d="M680.162 156.31H661.565V175.484H680.162V156.31Z" fill="#353238"/>
<path opacity="0.2" d="M705.583 156.31H686.986V175.484H705.583V156.31Z" fill="#353238"/>
<path d="M730.997 156.31H712.399V175.484H730.997V156.31Z" fill="#353238"/>
<path opacity="0.2" d="M95.5455 180.603H76.9482V199.777H95.5455V180.603Z" fill="#353238"/>
<path opacity="0.2" d="M120.966 180.603H102.369V199.777H120.966V180.603Z" fill="#353238"/>
<path opacity="0.4" d="M146.38 180.603H127.783V199.777H146.38V180.603Z" fill="#353238"/>
<path opacity="0.2" d="M171.801 180.603H153.204V199.777H171.801V180.603Z" fill="#353238"/>
<path opacity="0.2" d="M197.222 180.603H178.625V199.777H197.222V180.603Z" fill="#353238"/>
<path opacity="0.7" d="M222.636 180.603H204.038V199.777H222.636V180.603Z" fill="#353238"/>
<path opacity="0.7" d="M248.057 180.603H229.459V199.777H248.057V180.603Z" fill="#353238"/>
<path opacity="0.2" d="M273.47 180.603H254.873V199.777H273.47V180.603Z" fill="#353238"/>
<path opacity="0.2" d="M298.891 180.603H280.294V199.777H298.891V180.603Z" fill="#353238"/>
<path opacity="0.4" d="M324.312 180.603H305.715V199.777H324.312V180.603Z" fill="#353238"/>
<path d="M349.726 180.603H331.129V199.777H349.726V180.603Z" fill="#353238"/>
<path opacity="0.2" d="M375.147 180.603H356.55V199.777H375.147V180.603Z" fill="#353238"/>
<path d="M400.561 180.603H381.963V199.777H400.561V180.603Z" fill="#353238"/>
<path d="M425.982 180.603H407.384V199.777H425.982V180.603Z" fill="#353238"/>
<path d="M451.402 180.603H432.805V199.777H451.402V180.603Z" fill="#353238"/>
<path opacity="0.2" d="M476.816 180.603H458.219V199.777H476.816V180.603Z" fill="#353238"/>
<path d="M502.237 180.603H483.64V199.777H502.237V180.603Z" fill="#353238"/>
<path opacity="0.2" d="M527.658 180.603H509.061V199.777H527.658V180.603Z" fill="#353238"/>
<path opacity="0.2" d="M553.072 180.603H534.474V199.777H553.072V180.603Z" fill="#353238"/>
<path opacity="0.2" d="M578.493 180.603H559.895V199.777H578.493V180.603Z" fill="#353238"/>
<path opacity="0.2" d="M603.906 180.603H585.309V199.777H603.906V180.603Z" fill="#353238"/>
<path opacity="0.2" d="M629.327 180.603H610.73V199.777H629.327V180.603Z" fill="#353238"/>
<path opacity="0.7" d="M654.748 180.603H636.151V199.777H654.748V180.603Z" fill="#353238"/>
<path opacity="0.2" d="M680.162 180.603H661.565V199.777H680.162V180.603Z" fill="#353238"/>
<path opacity="0.2" d="M705.583 180.603H686.986V199.777H705.583V180.603Z" fill="#353238"/>
<path d="M730.997 180.603H712.399V199.777H730.997V180.603Z" fill="#353238"/>
<path opacity="0.2" d="M95.5455 204.888H76.9482V224.063H95.5455V204.888Z" fill="#353238"/>
<path opacity="0.2" d="M120.966 204.888H102.369V224.063H120.966V204.888Z" fill="#353238"/>
<path opacity="0.2" d="M146.38 204.888H127.783V224.063H146.38V204.888Z" fill="#353238"/>
<path opacity="0.4" d="M171.801 204.888H153.204V224.063H171.801V204.888Z" fill="#353238"/>
<path opacity="0.2" d="M197.222 204.888H178.625V224.063H197.222V204.888Z" fill="#353238"/>
<path opacity="0.2" d="M222.636 204.888H204.038V224.063H222.636V204.888Z" fill="#353238"/>
<path opacity="0.7" d="M248.057 204.888H229.459V224.063H248.057V204.888Z" fill="#353238"/>
<path opacity="0.2" d="M273.47 204.888H254.873V224.063H273.47V204.888Z" fill="#353238"/>
<path opacity="0.2" d="M298.891 204.888H280.294V224.063H298.891V204.888Z" fill="#353238"/>
<path opacity="0.2" d="M324.312 204.888H305.715V224.063H324.312V204.888Z" fill="#353238"/>
<path d="M349.726 204.888H331.129V224.063H349.726V204.888Z" fill="#353238"/>
<path opacity="0.2" d="M375.147 204.888H356.55V224.063H375.147V204.888Z" fill="#353238"/>
<path d="M400.561 204.888H381.963V224.063H400.561V204.888Z" fill="#353238"/>
<path d="M425.982 204.888H407.384V224.063H425.982V204.888Z" fill="#353238"/>
<path opacity="0.2" d="M451.402 204.888H432.805V224.063H451.402V204.888Z" fill="#353238"/>
<path opacity="0.2" d="M476.816 204.888H458.219V224.063H476.816V204.888Z" fill="#353238"/>
<path opacity="0.2" d="M502.237 204.888H483.64V224.063H502.237V204.888Z" fill="#353238"/>
<path opacity="0.2" d="M527.658 204.888H509.061V224.063H527.658V204.888Z" fill="#353238"/>
<path opacity="0.2" d="M553.072 204.888H534.474V224.063H553.072V204.888Z" fill="#353238"/>
<path opacity="0.2" d="M578.493 204.888H559.895V224.063H578.493V204.888Z" fill="#353238"/>
<path opacity="0.2" d="M603.906 204.888H585.309V224.063H603.906V204.888Z" fill="#353238"/>
<path opacity="0.2" d="M629.327 204.888H610.73V224.063H629.327V204.888Z" fill="#353238"/>
<path opacity="0.2" d="M654.748 204.888H636.151V224.063H654.748V204.888Z" fill="#353238"/>
<path opacity="0.2" d="M680.162 204.888H661.565V224.063H680.162V204.888Z" fill="#353238"/>
<path opacity="0.4" d="M705.583 204.888H686.986V224.063H705.583V204.888Z" fill="#353238"/>
<path d="M730.997 204.888H712.399V224.063H730.997V204.888Z" fill="#353238"/>
<path opacity="0.7" d="M95.5455 229.181H76.9482V248.356H95.5455V229.181Z" fill="#353238"/>
<path opacity="0.7" d="M120.966 229.181H102.369V248.356H120.966V229.181Z" fill="#353238"/>
<path opacity="0.7" d="M146.38 229.181H127.783V248.356H146.38V229.181Z" fill="#353238"/>
<path opacity="0.7" d="M171.801 229.181H153.204V248.356H171.801V229.181Z" fill="#353238"/>
<path opacity="0.7" d="M197.222 229.181H178.625V248.356H197.222V229.181Z" fill="#353238"/>
<path opacity="0.2" d="M222.636 229.181H204.038V248.356H222.636V229.181Z" fill="#353238"/>
<path opacity="0.2" d="M248.057 229.181H229.459V248.356H248.057V229.181Z" fill="#353238"/>
<path opacity="0.2" d="M273.47 229.181H254.873V248.356H273.47V229.181Z" fill="#353238"/>
<path opacity="0.2" d="M298.891 229.181H280.294V248.356H298.891V229.181Z" fill="#353238"/>
<path opacity="0.2" d="M324.312 229.181H305.715V248.356H324.312V229.181Z" fill="#353238"/>
<path opacity="0.2" d="M349.726 229.181H331.129V248.356H349.726V229.181Z" fill="#353238"/>
<path d="M375.147 229.181H356.55V248.356H375.147V229.181Z" fill="#353238"/>
<path opacity="0.2" d="M400.561 229.181H381.963V248.356H400.561V229.181Z" fill="#353238"/>
<path opacity="0.2" d="M425.982 229.181H407.384V248.356H425.982V229.181Z" fill="#353238"/>
<path opacity="0.2" d="M451.402 229.181H432.805V248.356H451.402V229.181Z" fill="#353238"/>
<path d="M476.816 229.181H458.219V248.356H476.816V229.181Z" fill="#353238"/>
<path opacity="0.2" d="M502.237 229.181H483.64V248.356H502.237V229.181Z" fill="#353238"/>
<path opacity="0.2" d="M527.658 229.181H509.061V248.356H527.658V229.181Z" fill="#353238"/>
<path opacity="0.2" d="M553.072 229.181H534.474V248.356H553.072V229.181Z" fill="#353238"/>
<path opacity="0.2" d="M578.493 229.181H559.895V248.356H578.493V229.181Z" fill="#353238"/>
<path opacity="0.2" d="M603.906 229.181H585.309V248.356H603.906V229.181Z" fill="#353238"/>
<path opacity="0.2" d="M629.327 229.181H610.73V248.356H629.327V229.181Z" fill="#353238"/>
<path opacity="0.2" d="M654.748 229.181H636.151V248.356H654.748V229.181Z" fill="#353238"/>
<path opacity="0.2" d="M680.162 229.181H661.565V248.356H680.162V229.181Z" fill="#353238"/>
<path opacity="0.2" d="M705.583 229.181H686.986V248.356H705.583V229.181Z" fill="#353238"/>
<path d="M730.997 229.181H712.399V248.356H730.997V229.181Z" fill="#353238"/>
<path d="M535.48 299.722C549.52 299.722 560.901 287.988 560.901 273.513C560.901 259.038 549.52 247.303 535.48 247.303C521.441 247.303 510.06 259.038 510.06 273.513C510.06 287.988 521.441 299.722 535.48 299.722Z" fill="#767D9F"/>
<path d="M534.161 240.17C536.698 251.585 538.851 263.085 540.62 274.67C541.152 278.113 541.626 281.743 540.416 284.998C539.403 287.711 537.339 289.831 535.721 292.206C534.103 294.581 532.878 297.625 533.862 300.346C534.846 303.067 537.719 304.555 540.46 305.322C548.304 307.502 556.666 305.916 564.474 303.556C568.009 302.617 571.398 301.17 574.541 299.256C577.851 297.092 580.563 294.085 583.056 290.988C594.437 276.76 601.887 259.683 608.9 242.711C604.394 243.134 599.855 242.445 595.657 240.701C591.46 238.958 587.726 236.21 584.762 232.684C581.89 229.204 579.783 224.356 581.402 220.102C576.656 222.785 571.02 222.965 565.91 224.799C562.741 226.047 559.69 227.595 556.797 229.422C553.308 231.501 549.837 233.621 546.387 235.781C542.443 238.231 538.747 240.411 534.161 240.17Z" fill="#AE6E79"/>
<path d="M587.328 259.848C582.874 268.785 577.078 277.376 568.804 282.698C560.53 288.019 549.39 289.463 541.101 284.201C537.019 281.631 533.928 277.722 530.363 274.43C526.798 271.138 522.344 268.319 517.554 268.747C512.276 269.221 508.142 273.468 504.606 277.534C499.241 283.713 494.058 290.154 490.259 297.467C482.969 311.523 481.241 327.954 481.562 343.889C481.883 359.823 484.121 375.675 484.172 391.61C484.245 411.213 481.023 430.657 477.764 449.967C507.727 446.164 537.726 454.477 567.754 457.626C586.971 459.663 606.334 459.618 625.653 459.565C629.05 459.565 632.666 459.475 635.495 457.536C637.224 456.236 638.622 454.523 639.57 452.545C642.238 447.472 643.31 441.684 644.053 435.964C645.942 421.518 646 406.891 646.051 392.309C646.182 356.982 646.306 321.527 641.954 286.479C640.882 277.857 639.512 269.191 636.304 261.126C633.096 253.061 627.862 245.642 620.543 241.32C615.84 238.539 604.942 233.699 599.401 236.502C593.182 239.629 590.31 253.865 587.328 259.848Z" fill="#767D9F"/>
<path d="M589.545 359.605C588.415 337.808 583.815 314.545 593.605 295.198C596.011 290.447 587.379 284.517 590.048 279.917C593.304 274.308 595.773 268.253 597.382 261.93C597.936 259.758 598.38 257.458 597.856 255.278C596.886 251.302 593.073 248.934 589.836 246.514C586.264 243.838 584.427 235.683 583.275 231.271C582.123 226.859 592.439 232.173 596.587 230.602C602.346 228.43 609.666 229.798 615.41 232C618.618 233.218 622.103 233.323 625.522 233.413C632.163 233.593 638.827 233.766 645.417 232.925C648.377 232.541 651.344 231.962 654.318 232.135C661.907 232.579 668.505 237.93 672.996 244.259C677.487 250.588 680.344 257.961 684.026 264.816C687.095 270.529 690.755 275.926 693.372 281.871C695.69 287.132 697.156 292.785 698.606 298.407L702.346 312.831C703 314.894 703.311 317.057 703.265 319.227C703.075 321.535 702.084 323.685 701.078 325.737C697.273 333.342 692.712 340.519 687.467 347.151C679.601 357.095 670.05 366.062 665.377 377.968C663.555 382.605 662.542 387.536 661.616 392.452C657.883 412.112 655.23 431.975 653.669 451.944C645.151 447.88 636.222 444.802 627.046 442.766C622.471 441.757 617.847 441.004 613.194 440.511C609.119 440.075 603.863 440.902 599.984 439.76C593.496 437.858 592.782 426.546 591.797 420.623C590.223 411.19 589.909 401.592 589.851 392.061C589.778 381.222 590.106 370.406 589.545 359.605Z" fill="#4C4981"/>
<path d="M447.057 318.844C450.127 336.883 453.509 354.975 460.18 371.925C460.012 372.09 459.845 372.24 459.677 372.391C459.086 372.909 458.474 373.398 457.832 373.894C456.338 374.976 454.698 375.893 453.458 377.306C452.989 377.847 452.619 378.471 452.365 379.148C452.136 379.676 452.017 380.249 452.017 380.828C452.017 381.407 452.136 381.979 452.365 382.508C448.887 384.094 444.849 383.605 440.948 383.455C437.588 383.327 434.329 383.455 431.631 385.356C427.884 388.017 426.754 393.128 426.149 397.773C425.926 399.467 425.734 401.163 425.573 402.862C425.418 404.44 425.291 406.024 425.194 407.612C424.864 412.867 424.817 418.137 425.056 423.397C425.095 424.359 425.146 425.321 425.209 426.283C413.297 425.99 402.441 419.586 392.17 413.362C389.822 411.942 387.402 410.446 385.878 408.101C384.474 405.798 383.88 403.067 384.194 400.366C384.194 399.983 384.26 399.615 384.311 399.224C384.637 396.994 385.197 394.806 385.98 392.7C389.194 383.728 393.931 375.418 399.97 368.159C402.58 365.017 405.518 361.943 406.735 357.997C407.268 356.276 407.464 354.449 408.004 352.735C410.424 345.309 419.158 341.799 422.147 334.591C422.876 332.87 423.211 330.983 424.115 329.329C424.929 327.955 425.979 326.745 427.214 325.759C427.746 325.301 428.3 324.857 428.847 324.414C433.969 320.275 438.905 315.903 443.653 311.298C444.538 310.441 445.412 309.574 446.277 308.697C446.162 312.099 446.424 315.503 447.057 318.844V318.844Z" fill="#4C4981"/>
<path d="M520.521 265.493C519.471 266.635 518.334 267.71 517.218 268.778L516.92 269.056L515.739 270.183C513.595 272.091 511.74 274.317 510.234 276.79L510.111 277C506.393 283.863 507.77 292.311 508.806 300.106C510.09 309.819 510.667 319.618 510.533 329.42C510.344 342.949 508.798 356.388 508.769 369.903C508.769 372.969 508.835 376.028 508.966 379.095C509.177 384.079 509.542 389.054 509.979 394.03C510.453 399.487 511.022 404.936 511.554 410.386C511.977 414.602 512.378 418.812 512.713 423.021C512.881 425.201 513.041 427.373 513.172 429.552C513.325 432.108 513.449 434.671 513.522 437.227C513.573 438.85 513.603 440.466 513.603 442.09C513.603 443.014 513.603 443.931 513.603 444.848C513.603 446.607 513.556 448.361 513.464 450.11C513.367 452.36 513.219 454.615 513.019 456.874C512.793 459.332 512.392 462.016 510.716 463.744C510.614 463.85 510.504 463.947 510.395 464.045L508.033 463.744C491.75 461.735 475.312 461.432 458.97 462.842C459.327 460.302 459.655 457.769 459.976 455.221C460.122 454.018 460.267 452.808 460.406 451.598C460.566 450.215 460.719 448.832 460.865 447.449C461.033 445.946 461.186 444.442 461.332 442.939C461.711 439.066 462.044 435.19 462.331 431.311C462.753 425.654 463.074 419.987 463.293 414.309C463.4 411.598 463.482 408.885 463.541 406.169C463.623 402.802 463.662 399.432 463.657 396.06C463.657 392.782 463.631 389.5 463.577 386.213C463.577 385.131 463.533 384.048 463.446 382.974C463.383 382.006 463.254 381.044 463.06 380.095C462.518 377.907 461.786 375.773 460.872 373.721C460.712 373.33 460.559 372.969 460.406 372.556C460.318 372.353 460.238 372.143 460.158 371.94C464.357 368.084 467.346 362.92 470.219 357.839C474.877 349.654 479.645 341.107 480.425 331.652C481.205 322.196 476.648 311.576 467.886 308.689C465.502 307.938 462.979 307.727 460.523 307.284C458.204 306.863 453.371 305.908 450.688 304.195C449.23 305.738 447.772 307.254 446.314 308.742C446.402 306.471 446.941 304.243 447.896 302.195L448.931 302.248C448.847 302.007 448.807 301.752 448.814 301.496C448.814 300.692 449.354 299.783 450.506 298.775C453.94 295.769 459.342 295.1 461.507 291.033C462.411 289.342 462.564 287.328 463.293 285.554C465.385 280.496 471.392 278.632 475.008 274.588C478.624 270.544 479.528 264.816 482.452 260.307C484.635 257.013 487.664 254.411 491.2 252.79C491.491 252.647 491.79 252.505 492.089 252.377C498.14 249.709 505.328 249.1 511.598 249.115C514.033 249.115 520.346 249.19 523.437 250.46C523.938 250.645 524.397 250.934 524.786 251.31C528.081 255.008 522.956 262.817 520.521 265.493Z" fill="#4C4981"/>
<path d="M448.144 301.669C453.775 299.921 459.688 299.345 465.537 299.973C471.387 300.601 477.057 302.422 482.218 305.33C487.467 308.336 492.177 312.53 495.064 317.942C499.401 326.06 499.212 335.846 498.906 345.114C498.752 349.751 498.556 354.554 496.573 358.718C494.276 363.536 489.946 366.843 485.528 369.549C482.76 371.37 479.728 372.722 476.546 373.556C471.647 374.653 466.559 373.721 461.623 372.804C456.258 371.782 450.499 370.549 446.773 366.43C444.586 364.04 443.391 360.936 442.21 357.899C440.513 353.514 438.812 349.135 437.106 344.76C434.154 337.161 433.155 330.84 437.055 323.437C438.827 320.062 440.992 316.905 442.742 313.507C443.617 311.779 446.751 302.113 448.144 301.669Z" fill="#4C4981"/>
<path d="M754.537 431.604V454.078C739.582 460.483 723.54 463.754 707.347 463.699H510.737C510.635 463.805 510.526 463.902 510.417 464L508.055 463.699H158.321C128.978 463.699 101.786 455.537 79.4852 441.631V407.319L247.685 387.303H247.816L345.767 395.857L371.115 398.112L384.281 399.262L411.532 401.644L425.551 402.869L445.964 404.658L448.836 404.906L463.548 406.192L483.508 407.883L511.576 410.333L558.364 414.43L591.28 417.308L645.329 422.036L655.608 422.931L656.717 423.028L657.679 423.111L671.253 424.299L686.154 425.606L687.882 425.757L754.537 431.604Z" fill="#504F60"/>
<path d="M556.972 430.778L346.183 393.684L338.011 436.295L434.635 448.223L464.386 452.064L546.226 435.445L556.972 430.778Z" fill="#9C9CA1"/>
<path d="M447.859 449.929L553.465 429.462C553.994 429.358 554.538 429.376 555.059 429.514C555.58 429.652 556.065 429.907 556.479 430.262C556.893 430.616 557.225 431.06 557.453 431.563C557.681 432.065 557.798 432.613 557.796 433.168V433.168C557.798 434.048 557.501 434.9 556.956 435.578C556.411 436.255 555.653 436.713 554.814 436.873L451.68 456.784L447.859 449.929Z" fill="#9C9CA1"/>
<path d="M493.671 385.567C496.959 385.251 500.291 384.717 503.25 383.214C506.896 381.343 509.731 378.118 513.107 375.743C520.528 370.481 530.458 369.775 538.965 372.796C547.473 375.818 554.574 382.29 559.546 390.016C562.848 395.165 565.327 401.734 562.994 407.417C562.193 409.154 561.184 410.78 559.99 412.257L553.91 420.45C552.755 422.172 551.365 423.714 549.784 425.028C547.509 426.734 544.681 427.433 541.896 427.854C534.496 428.966 526.966 428.335 519.508 428.846C506.699 429.725 494.189 433.98 481.351 433.837C473.973 433.754 466.69 432.221 459.48 430.688L427.571 423.923C422.016 422.75 415.739 421.037 413.122 415.843C411.948 413.505 411.729 410.799 411.591 408.168C411.212 400.923 411.591 392.865 416.461 387.641C421.039 382.741 428.278 381.192 433.746 377.569C440.438 373.127 442.647 374.563 449.704 377.9C463.471 384.328 478.619 386.97 493.671 385.567V385.567Z" fill="#AE6E79"/>
<path opacity="0.05" d="M493.671 385.567C496.959 385.251 500.291 384.717 503.25 383.214C506.896 381.343 509.731 378.118 513.107 375.743C520.528 370.481 530.458 369.775 538.965 372.796C547.473 375.818 554.574 382.29 559.546 390.016C562.848 395.165 565.327 401.734 562.994 407.417C562.193 409.154 561.184 410.78 559.99 412.257L553.91 420.45C552.755 422.172 551.365 423.714 549.784 425.028C547.509 426.734 544.681 427.433 541.896 427.854C534.496 428.966 526.966 428.335 519.508 428.846C506.699 429.725 494.189 433.98 481.351 433.837C473.973 433.754 466.69 432.221 459.48 430.688L427.571 423.923C422.016 422.75 415.739 421.037 413.122 415.843C411.948 413.505 411.729 410.799 411.591 408.168C411.212 400.923 411.591 392.865 416.461 387.641C421.039 382.741 428.278 381.192 433.746 377.569C440.438 373.127 442.647 374.563 449.704 377.9C463.471 384.328 478.619 386.97 493.671 385.567V385.567Z" fill="black"/>
<path d="M621.811 375.262C612.859 378.832 603.855 382.417 594.48 384.545C578.763 388.115 562.316 387.551 546.722 391.632C538.484 393.797 530.297 397.285 521.833 396.578C518.05 396.263 514.397 395.075 510.716 394.173C490.033 388.912 466.522 390.618 449.726 404.147C443.981 408.77 439.279 414.535 435.014 420.683C434.102 422.011 433.485 423.531 433.208 425.133C432.931 426.735 433.001 428.381 433.413 429.952C433.824 431.523 434.567 432.981 435.589 434.222C436.611 435.463 437.886 436.455 439.323 437.129C445.855 440.226 452.852 442.15 460.012 442.819C469.584 443.691 479.2 442.293 488.721 440.895C502.85 438.828 516.985 436.753 531.077 434.431C536.137 433.596 541.196 432.732 546.285 432.07C582.903 427.298 620.185 433.1 656.899 429.117C660.61 428.711 664.386 428.185 667.761 426.553C676.305 422.419 680.534 411.521 678.77 401.945C677.005 392.369 670.196 384.409 662.002 379.524C655.135 375.412 647.728 373.751 640.08 372.007C632.98 370.301 628.649 372.556 621.811 375.262Z" fill="#AE6E79"/>
<path opacity="0.1" d="M700.349 318.017C704.387 323.474 705.248 330.795 704.81 337.627C704.373 344.46 702.798 351.217 702.565 358.079C702.244 367.49 704.446 376.87 704.074 386.251C703.812 392.813 702.302 399.247 700.516 405.545C698.409 412.979 695.362 420.969 688.706 424.539C679.87 429.282 661.339 426.614 652.044 430.327C652.889 424.892 660.996 417.023 661.842 411.588C662.425 407.83 663.015 403.967 662.388 400.201C661.587 395.398 658.853 391.136 655.609 387.589C650.447 381.944 643.711 377.697 636.311 376.314C628.912 374.931 610.796 376.066 604.876 380.884C604.147 375.908 617.707 371.113 622.475 370.038C624.851 369.489 627.578 369.797 629.48 368.242C633.126 365.295 630.479 359.425 630.654 354.712C630.793 350.954 632.921 347.511 633.352 343.753C634.081 337.74 630.275 331.614 631.77 325.714C632.324 323.534 633.556 321.618 634.409 319.543C637.004 313.192 635.867 305.946 634.482 299.196C633.621 294.957 632.783 290.177 635.072 286.561C637.194 283.186 643.215 295.205 647.072 294.649C659.808 292.807 671.334 283.074 681.62 291.041C686.862 295.1 687.547 299.309 689.639 305.104C691.673 310.621 696.944 313.447 700.349 318.017Z" fill="black"/>
<path d="M702.536 318.017C706.574 323.474 707.435 330.795 706.997 337.627C706.56 344.46 704.985 351.217 704.752 358.079C704.431 367.49 706.633 376.87 706.261 386.251C705.999 392.813 704.489 399.247 702.703 405.545C700.596 412.979 697.549 420.969 690.893 424.539C682.057 429.282 663.526 426.614 654.231 430.327C655.076 424.892 663.183 417.023 664.029 411.588C664.612 407.83 665.202 403.967 664.576 400.201C663.774 395.398 661.04 391.136 657.796 387.589C652.634 381.944 645.898 377.697 638.498 376.314C631.099 374.931 612.983 376.066 607.063 380.884C606.334 375.908 619.894 371.113 624.662 370.038C627.038 369.489 629.765 369.797 631.668 368.242C635.313 365.295 632.666 359.425 632.841 354.712C632.98 350.954 635.109 347.511 635.539 343.753C636.268 337.74 632.462 331.614 633.957 325.714C634.511 323.534 635.743 321.618 636.596 319.543C639.191 313.192 638.054 305.946 636.669 299.196C635.808 294.957 634.97 290.177 637.259 286.561C639.381 283.186 643.529 281.909 647.385 281.345C660.298 279.544 673.381 283.024 683.836 291.041C689.078 295.1 689.763 299.309 691.856 305.104C693.86 310.621 699.131 313.447 702.536 318.017Z" fill="#4C4981"/>
<path d="M220.164 282.405L259.801 433.438C260.288 435.289 261.309 436.943 262.73 438.179C264.151 439.416 265.904 440.177 267.755 440.361L446.161 458.032C447.615 458.177 449.081 457.96 450.437 457.4C451.793 456.84 452.999 455.953 453.955 454.814C454.91 453.674 455.586 452.315 455.928 450.851C456.269 449.386 456.264 447.859 455.915 446.397L412.509 264.215C411.993 262.05 410.748 260.143 408.997 258.834C407.246 257.526 405.101 256.899 402.944 257.067L228.278 270.536C226.937 270.644 225.636 271.055 224.466 271.741C223.297 272.426 222.289 273.37 221.514 274.503C220.739 275.637 220.217 276.933 219.983 278.298C219.75 279.664 219.812 281.066 220.164 282.405V282.405Z" fill="#9C9CA1"/>
<path d="M573.82 311.876C584.65 311.876 593.43 302.706 593.43 291.394C593.43 280.082 584.65 270.912 573.82 270.912C562.989 270.912 554.209 280.082 554.209 291.394C554.209 302.706 562.989 311.876 573.82 311.876Z" fill="white"/>
<path d="M589.924 254.03C589.924 254.03 594.057 266.703 581.861 272.032L580.301 274.843L587.941 282.615C587.941 282.615 597.36 264.899 596.339 258.608C596.339 258.608 594.881 252.219 589.924 254.03Z" fill="white"/>
<path d="M576.072 311.876C586.517 311.876 594.983 303.147 594.983 292.379C594.983 281.611 586.517 272.881 576.072 272.881C565.628 272.881 557.162 281.611 557.162 292.379C557.162 303.147 565.628 311.876 576.072 311.876Z" fill="#353238"/>
<path d="M596.434 261.487L593.43 256.376L589.056 255.737C589.989 238.908 585.754 233.894 585.754 233.894L584.77 233.796L580.483 233.368L572.42 224.739V222.289C583.749 223.679 590.011 229.226 593.394 235.728C599.372 247.138 596.434 261.487 596.434 261.487Z" fill="#353238"/>
<path opacity="0.1" d="M584.806 230.7V233.796L580.519 233.368L572.456 224.739C572.456 224.739 584.93 227.618 584.806 230.7Z" fill="black" stroke="#4C4981" stroke-miterlimit="10"/>
<path opacity="0.1" d="M596.434 261.487L593.43 256.376V235.758C599.372 247.138 596.434 261.487 596.434 261.487Z" fill="black" stroke="#4C4981" stroke-miterlimit="10"/>
<path d="M541.128 300.394C546.159 297.399 545.943 287.3 540.644 277.838C535.346 268.376 526.972 263.133 521.94 266.128C516.909 269.124 517.125 279.222 522.424 288.684C527.722 298.146 536.096 303.389 541.128 300.394Z" fill="white"/>
<path d="M534.372 281.608C539.672 291.071 546.175 297.392 541.145 300.399C536.115 303.405 521.461 301.902 516.161 292.432C510.861 282.961 515.673 269.882 520.703 266.876C525.733 263.869 529.065 272.122 534.372 281.608Z" fill="#353238"/>
<path opacity="0.1" d="M581.562 213.435C581.562 243.673 561.492 272.814 532.163 272.814C518.078 272.814 504.57 267.045 494.61 256.776C484.65 246.507 479.054 232.58 479.054 218.057C479.054 203.535 484.65 189.607 494.61 179.338C504.57 169.069 518.078 163.3 532.163 163.3C561.492 163.331 581.562 183.189 581.562 213.435Z" fill="black"/>
<path d="M532.163 271.341C561.495 271.341 585.273 246.825 585.273 216.584C585.273 186.343 561.495 161.827 532.163 161.827C502.832 161.827 479.054 186.343 479.054 216.584C479.054 246.825 502.832 271.341 532.163 271.341Z" fill="#AE6E79"/>
<path d="M527.498 192.321C533.818 194.719 537.558 201.454 543.23 205.204C551.249 210.466 561.689 209.105 570.845 206.505C575.948 205.069 581.285 203.318 586.308 204.911C587.047 205.248 587.862 205.368 588.663 205.257C589.756 204.934 590.296 203.686 590.653 202.573C596.864 183.482 594.072 161.857 584.697 144.194C582.276 139.639 579.375 135.234 575.38 132.07C572.23 129.582 568.527 127.951 564.794 126.56C557.973 124.035 550.918 122.239 543.74 121.201C542.473 120.964 541.178 120.921 539.898 121.074C538.141 121.367 536.567 122.344 534.999 123.216C528.286 126.926 520.842 129.011 513.231 129.311C503.024 129.71 491.36 127.229 483.494 133.979C474.017 142.074 476.379 157.866 470.233 168.855C466.165 176.123 458.321 181.4 457.031 189.675C456.695 192.205 456.851 194.778 457.49 197.244C460.493 209.977 472.449 219.839 485.193 220.072C487.15 220.225 489.109 219.811 490.85 218.876C491.99 218.074 492.997 217.087 493.832 215.953C502.179 205.76 511.729 186.338 527.498 192.321Z" fill="#444053"/>
<path opacity="0.1" d="M590.653 197.034C590.296 198.146 589.756 199.394 588.663 199.717C587.862 199.828 587.047 199.709 586.308 199.371C581.285 197.778 575.919 199.529 570.853 200.965C561.689 203.566 551.227 204.956 543.237 199.665C537.558 195.906 533.826 189.142 527.498 186.782C511.729 180.768 502.179 200.221 493.81 210.413C492.975 211.547 491.968 212.535 490.828 213.337C489.087 214.272 487.128 214.686 485.171 214.532C472.471 214.299 460.508 204.438 457.468 191.705C457.3 190.953 457.154 190.202 457.045 189.45C457.045 189.518 457.045 189.578 457.009 189.645C456.673 192.175 456.829 194.748 457.468 197.214C460.472 209.947 472.435 219.808 485.171 220.041C487.128 220.195 489.087 219.781 490.828 218.846C491.968 218.044 492.975 217.057 493.81 215.922C502.179 205.73 511.729 186.308 527.498 192.291C533.826 194.689 537.558 201.423 543.237 205.174C551.257 210.436 561.689 209.075 570.853 206.474C575.956 205.039 581.285 203.288 586.308 204.881C587.047 205.218 587.862 205.338 588.663 205.227C589.756 204.904 590.296 203.656 590.653 202.543C593.158 194.732 594.265 186.515 593.919 178.296C593.704 184.671 592.604 190.981 590.653 197.034V197.034Z" fill="black"/>
</g>
<defs>
<clipPath id="clip0">
<rect width="834" height="464" fill="white"/>
</clipPath>
</defs>
</svg>
