<?xml version="1.0" encoding="UTF-8" standalone="no"?>
<!DOCTYPE svg PUBLIC "-//W3C//DTD SVG 20010904//EN"
              "http://www.w3.org/TR/2001/REC-SVG-20010904/DTD/svg10.dtd">

<svg xmlns="http://www.w3.org/2000/svg"
     width="6.4in" height="3.6in"
     viewBox="0 0 1920 1080">
  <path id="Selection"
        fill="#279af1" stroke="none" stroke-width="1"
        d="M 0.00,1079.00
           C 0.00,1079.00 629.00,1079.00 629.00,1079.00
             629.00,1079.00 644.00,1080.00 644.00,1080.00
             644.00,1080.00 786.00,1080.00 786.00,1080.00
             786.00,1080.00 1069.00,1080.00 1069.00,1080.00
             1069.00,1080.00 1919.00,1080.00 1919.00,1080.00
             1919.00,1080.00 1919.00,737.00 1919.00,737.00
             1919.00,737.00 1920.00,722.00 1920.00,722.00
             1920.00,722.00 1920.00,601.00 1920.00,601.00
             1920.00,601.00 1920.00,359.00 1920.00,359.00
             1920.00,359.00 1920.00,136.00 1920.00,136.00
             1920.00,136.00 1920.00,14.00 1920.00,14.00
             1920.00,14.00 1919.00,0.00 1919.00,0.00
             1919.00,0.00 1631.00,0.00 1631.00,0.00
             1618.98,0.02 1607.59,5.47 1597.00,10.75
             1577.70,20.38 1559.56,31.30 1542.00,43.86
             1470.02,95.36 1409.07,167.10 1362.42,242.00
             1338.22,280.86 1317.38,321.91 1299.43,364.00
             1299.43,364.00 1276.99,419.00 1276.99,419.00
             1276.99,419.00 1219.42,558.00 1219.42,558.00
             1203.72,594.80 1182.84,643.19 1162.55,677.00
             1146.71,703.41 1133.33,719.34 1112.83,742.00
             1112.83,742.00 1103.17,752.00 1103.17,752.00
             1103.17,752.00 1079.16,779.00 1079.16,779.00
             1053.98,807.21 1029.23,834.06 999.00,857.12
             940.57,901.67 876.12,921.85 803.00,921.00
             803.00,921.00 792.00,920.04 792.00,920.04
             748.73,918.16 706.24,907.19 664.00,898.21
             664.00,898.21 454.00,851.12 454.00,851.12
             454.00,851.12 402.00,838.42 402.00,838.42
             364.71,830.19 326.96,824.63 289.00,820.83
             289.00,820.83 262.00,818.91 262.00,818.91
             262.00,818.91 252.00,818.00 252.00,818.00
             191.41,817.29 136.41,818.18 83.00,851.42
             66.86,861.47 55.36,871.62 42.00,885.00
             29.75,897.27 19.31,911.14 10.40,926.00
             7.46,930.90 1.76,940.65 0.76,946.00
             0.76,946.00 0.76,969.00 0.76,969.00
             0.76,969.00 0.00,984.00 0.00,984.00
             0.00,984.00 0.00,1079.00 0.00,1079.00 Z" />
</svg>
