<svg width="31" height="28" viewBox="0 0 31 28" fill="none" xmlns="http://www.w3.org/2000/svg">
<path d="M27.5185 4.0542H2.84674C2.32187 4.0542 1.89783 4.43059 1.89783 4.89647V17.9517C1.89783 18.4176 2.32187 18.794 2.84674 18.794H14.1151V21.7419H9.01468C8.75372 21.7419 8.54022 21.9314 8.54022 22.1631V23.4265C8.54022 23.5423 8.64697 23.637 8.77745 23.637H21.5878C21.7182 23.637 21.825 23.5423 21.825 23.4265V22.1631C21.825 21.9314 21.6115 21.7419 21.3505 21.7419H16.2501V18.794H27.5185C28.0433 18.794 28.4674 18.4176 28.4674 17.9517V4.89647C28.4674 4.43059 28.0433 4.0542 27.5185 4.0542ZM26.3323 16.8989H4.03288V5.94931H26.3323V16.8989Z" fill="#0593FB"/>
</svg>
